<?xml version="1.0" encoding="UTF-8"?>
<mxfile host="app.diagrams.net">
  <diagram name="CI-CD-Kubernetes-Architecture" id="diagram1">
    <mxGraphModel dx="1426" dy="780" grid="1" gridSize="10" guides="1" tooltips="1" connect="1" arrows="1" fold="1" page="1" pageScale="1" pageWidth="827" pageHeight="1169">
      <root>
        <mxCell id="0" />
        <mxCell id="1" parent="0" />
        
        <!-- Developer -->
        <mxCell id="2" value="Developer" style="shape=ellipse;whiteSpace=wrap;html=1;fillColor=#dae8fc;strokeColor=#6c8ebf;" vertex="1" parent="1">
          <mxGeometry x="60" y="60" width="120" height="60" as="geometry" />
        </mxCell>

        <!-- GitHub Repository -->
        <mxCell id="3" value="GitHub Repository" style="shape=rectangle;whiteSpace=wrap;html=1;fillColor=#fff2cc;strokeColor=#d6b656;" vertex="1" parent="1">
          <mxGeometry x="240" y="60" width="160" height="60" as="geometry" />
        </mxCell>

        <!-- GitHub Actions -->
        <mxCell id="4" value="GitHub Actions" style="shape=rectangle;whiteSpace=wrap;html=1;fillColor=#e1d5e7;strokeColor=#9673a6;" vertex="1" parent="1">
          <mxGeometry x="440" y="60" width="160" height="60" as="geometry" />
        </mxCell>

        <!-- DockerHub -->
        <mxCell id="5" value="DockerHub" style="shape=cube;whiteSpace=wrap;html=1;fillColor=#f8cecc;strokeColor=#b85450;" vertex="1" parent="1">
          <mxGeometry x="640" y="60" width="120" height="60" as="geometry" />
        </mxCell>

        <!-- Kubernetes Cluster -->
        <mxCell id="6" value="k3s Kubernetes Cluster" style="shape=hexagon;whiteSpace=wrap;html=1;fillColor=#d5e8d4;strokeColor=#82b366;" vertex="1" parent="1">
          <mxGeometry x="800" y="60" width="180" height="60" as="geometry" />
        </mxCell>

        <!-- Monitoring: Datadog -->
        <mxCell id="7" value="Monitoring: Datadog" style="shape=rectangle;whiteSpace=wrap;html=1;fillColor=#f5f5f5;strokeColor=#666666;" vertex="1" parent="1">
          <mxGeometry x="1020" y="60" width="180" height="60" as="geometry" />
        </mxCell>

        <!-- Arrows -->
        <mxCell id="8" style="endArrow=block;html=1;" edge="1" parent="1" source="2" target="3">
          <mxGeometry relative="1" as="geometry" />
        </mxCell>
        <mxCell id="9" style="endArrow=block;html=1;" edge="1" parent="1" source="3" target="4">
          <mxGeometry relative="1" as="geometry" />
        </mxCell>
        <mxCell id="10" style="endArrow=block;html=1;" edge="1" parent="1" source="4" target="5">
          <mxGeometry relative="1" as="geometry" />
        </mxCell>
        <mxCell id="11" style="endArrow=block;html=1;" edge="1" parent="1" source="5" target="6">
          <mxGeometry relative="1" as="geometry" />
        </mxCell>
        <mxCell id="12" style="endArrow=block;html=1;" edge="1" parent="1" source="6" target="7">
          <mxGeometry relative="1" as="geometry" />
        </mxCell>

      </root>
    </mxGraphModel>
  </diagram>
</mxfile>
